<?xml version="1.0" encoding="utf-8"?>
<!-- Generator: Adobe Illustrator 26.0.1, SVG Export Plug-In . SVG Version: 6.00 Build 0)  -->
<svg version="1.1" id="Layer_1" xmlns="http://www.w3.org/2000/svg" xmlns:xlink="http://www.w3.org/1999/xlink" x="0px" y="0px"
	 viewBox="0 0 64 64" style="enable-background:new 0 0 64 64;" xml:space="preserve">
<style type="text/css">
	.st0{fill:#FFFFFF;}
</style>
<g>
	<path class="st0" d="M13.8,49.5l-10.3,0c-1.9,0-3.3-1.7-3-3.5l4.7-25c0.3-1.4,1.5-2.4,2.9-2.4l10.3,0c1.9,0,3.3,1.7,3,3.5l-4.7,25
		C16.5,48.5,15.2,49.5,13.8,49.5z"/>
	<path class="st0" d="M34.8,49.2l-10.3,0c-1.9,0-3.3-1.7-3-3.5l4.7-25c0.3-1.4,1.5-2.4,2.9-2.4l10.3,0c1.9,0,3.3,1.7,3,3.5l-4.7,25
		C37.5,48.2,36.3,49.2,34.8,49.2z"/>
	<path class="st0" d="M55.9,48.8l-10.3,0c-1.9,0-3.3-1.7-3-3.5l4.7-25c0.3-1.4,1.5-2.4,2.9-2.4l10.3,0c1.9,0,3.3,1.7,3,3.5l-4.7,25
		C58.6,47.8,57.3,48.8,55.9,48.8z"/>
</g>
</svg>
