<svg id="Layer_1" data-name="Layer 1" xmlns="http://www.w3.org/2000/svg" viewBox="0 0 528.48 236.98"><path d="M149.83,0a24.24,24.24,0,0,1,23.82,28.7L152.18,143.23l-15,80.16A16.65,16.65,0,0,1,120.8,237H21.25A21.24,21.24,0,0,1,.37,211.85h0l.45-2.42L37.46,13.59A16.64,16.64,0,0,1,53.82,0Z"/><path d="M327,0a24.23,24.23,0,0,1,23.82,28.7L329.38,143.23l-15,80.16A16.64,16.64,0,0,1,298,237H198.45a21.24,21.24,0,0,1-20.88-25.13h0l.45-2.42L214.66,13.59A16.65,16.65,0,0,1,231,0Z"/><path d="M504.24,0a24.24,24.24,0,0,1,23.82,28.7L506.58,143.23l-15,80.16A16.65,16.65,0,0,1,475.21,237H375.66a21.25,21.25,0,0,1-20.89-25.13h0l.45-2.42L391.87,13.59A16.64,16.64,0,0,1,408.23,0Z"/></svg>