<svg xmlns="http://www.w3.org/2000/svg" fill="none" viewBox="0 0 24 24" id="Strapi-Icon--Streamline-Svg-Logos" height="24" width="24">
  <desc>
    Strapi Icon Streamline Icon: https://streamlinehq.com
  </desc>
  <path fill="#4945ff" d="M0.25 8.396675C0.25 4.556275 0.25 2.6361 1.443045 1.443045 2.6361 0.25 4.556275 0.25 8.396675 0.25h7.2067c3.84035 0 5.7605 0 6.95355 1.193045C23.75 2.6361 23.75 4.556275 23.75 8.396675v7.2067c0 3.84035 0 5.7605 -1.193075 6.95355C21.363875 23.75 19.443725 23.75 15.603375 23.75H8.396675c-3.8404 0 -5.760575 0 -6.95363 -1.193075C0.25 21.363875 0.25 19.443725 0.25 15.603375V8.396675Z" stroke-width="0.25"></path>
  <path fill="#ffffff" d="M16.46495 7.378425H8.553225v4.034175h4.034225v4.034125h4.034125V7.5351c0 -0.086525 -0.070175 -0.156675 -0.156625 -0.156675Z" stroke-width="0.25"></path>
  <path fill="#ffffff" d="M12.587325 11.41235h-0.15665v0.156675h0.15665v-0.156675Z" stroke-width="0.25"></path>
  <path fill="#9593ff" d="M8.553225 11.41235h3.877475c0.086575 0 0.15675 0.070175 0.15675 0.156625v3.8775H8.7099c-0.086525 0 -0.156675 -0.07005 -0.156675 -0.156625v-3.8775Z" stroke-width="0.25"></path>
  <path fill="#9593ff" d="M12.58765 15.44665h4.034125L12.721325 19.3471c-0.049325 0.049325 -0.133675 0.0144 -0.133675 -0.055325V15.44665Z" stroke-width="0.25"></path>
  <path fill="#9593ff" d="M8.553175 11.4126H4.708125c-0.069775 0 -0.104725 -0.084375 -0.0554 -0.133725l3.90045 -3.90045v4.034175Z" stroke-width="0.25"></path>
</svg>